<svg xmlns="http://www.w3.org/2000/svg" viewBox="0 0 64 64" fill="none">
  <rect width="64" height="64" rx="14" fill="#1C3A1C"/>
  <!-- Stem -->
  <path d="M32 48 L32 28" stroke="#7EA86B" stroke-width="2.5" stroke-linecap="round"/>
  <!-- Main leaf -->
  <path d="M32 28 C32 28 20 22 18 12 C18 12 28 10 34 18 C38 23 36 28 32 28Z" fill="#7EA86B"/>
  <!-- Right leaf -->
  <path d="M32 36 C32 36 42 30 46 22 C46 22 38 19 34 26 C31 31 32 36 32 36Z" fill="#2E6B2E"/>
  <!-- Small left leaf -->
  <path d="M32 42 C32 42 24 38 22 32 C22 32 28 29 32 34 C34 37 32 42 32 42Z" fill="#7EA86B" opacity="0.7"/>
</svg>
